<svg xmlns="http://www.w3.org/2000/svg" width="1024" height="1024" fill="none" viewBox="0 0 1024 1024"><defs><linearGradient id="face" x1="140" x2="884" y1="128" y2="872" gradientUnits="userSpaceOnUse"><stop stop-color="#B8F0A8"/><stop offset=".5" stop-color="#88E0C0"/><stop offset="1" stop-color="#78CCE8"/></linearGradient><linearGradient id="gloss" x1="0" x2="0" y1="0" y2="1"><stop stop-color="#fff" stop-opacity=".12"/><stop offset="1" stop-color="#fff" stop-opacity="0"/></linearGradient></defs><g><rect width="744" height="744" x="140" y="128" fill="url(#face)" rx="178"/><rect width="744" height="348" x="140" y="128" fill="url(#gloss)" rx="178"/></g><g><rect width="58" height="58" x="372" y="268" fill="#264653"/><rect width="58" height="58" x="546" y="268" fill="#264653"/><rect width="58" height="58" x="372" y="326" fill="#264653"/><rect width="58" height="58" x="430" y="326" fill="#264653"/><rect width="58" height="58" x="488" y="326" fill="#264653"/><rect width="58" height="58" x="546" y="326" fill="#264653"/><rect width="58" height="58" x="314" y="384" fill="#264653"/><rect width="58" height="58" x="372" y="384" fill="#E9F5F2"/><rect width="58" height="58" x="430" y="384" fill="#E9F5F2"/><rect width="58" height="58" x="488" y="384" fill="#E9F5F2"/><rect width="58" height="58" x="546" y="384" fill="#E9F5F2"/><rect width="58" height="58" x="604" y="384" fill="#264653"/><rect width="58" height="58" x="256" y="442" fill="#264653"/><rect width="58" height="58" x="314" y="442" fill="#264653"/><rect width="58" height="58" x="372" y="442" fill="#E9F5F2"/><rect width="58" height="58" x="430" y="442" fill="#1A1C20"/><rect width="58" height="58" x="488" y="442" fill="#E9F5F2"/><rect width="58" height="58" x="546" y="442" fill="#1A1C20"/><rect width="58" height="58" x="604" y="442" fill="#264653"/><rect width="58" height="58" x="662" y="442" fill="#264653"/><rect width="58" height="58" x="314" y="500" fill="#264653"/><rect width="58" height="58" x="372" y="500" fill="#E9F5F2"/><rect width="58" height="58" x="430" y="500" fill="#E9F5F2"/><rect width="58" height="58" x="488" y="500" fill="#E9F5F2"/><rect width="58" height="58" x="546" y="500" fill="#E9F5F2"/><rect width="58" height="58" x="604" y="500" fill="#264653"/><rect width="58" height="58" x="372" y="558" fill="#264653"/><rect width="58" height="58" x="430" y="558" fill="#264653"/><rect width="58" height="58" x="488" y="558" fill="#264653"/><rect width="58" height="58" x="546" y="558" fill="#264653"/><rect width="58" height="58" x="314" y="616" fill="#264653"/><rect width="58" height="58" x="604" y="616" fill="#264653"/></g></svg>