<svg xmlns="http://www.w3.org/2000/svg" width="1200" height="360" fill="none" aria-labelledby="title desc" role="img" viewBox="0 0 1200 360"><title id="title">Open Island</title><desc id="desc">Open Island wordmark with the v6 Bar + Dot logo and the tagline agents in your menu bar.</desc><defs><filter id="paper-shadow" width="1048" height="304" x="76" y="28" color-interpolation-filters="sRGB" filterUnits="userSpaceOnUse"><feDropShadow dx="0" dy="20" flood-color="#0D0D0F" flood-opacity=".14" stdDeviation="26"/></filter><linearGradient id="paper" x1="120" x2="1080" y1="72" y2="288" gradientUnits="userSpaceOnUse"><stop stop-color="#F6EFDC"/><stop offset="1" stop-color="#E9DFC6"/></linearGradient></defs><rect width="1200" height="360" fill="#F1EAD9" rx="44"/><rect width="1198" height="358" x="1" y="1" stroke="#0D0D0F" stroke-opacity=".08" stroke-width="2" rx="43"/><g filter="url(#paper-shadow)"><rect width="960" height="216" x="120" y="72" fill="url(#paper)" rx="32"/><rect width="959" height="215" x="120.5" y="72.5" stroke="#0D0D0F" stroke-opacity=".08" rx="31.5"/><g transform="translate(210 136)"><path fill="#0D0D0F" d="M0 0H220V44C220 68.3005 200.301 88 176 88H44C19.6995 88 0 68.3005 0 44V0Z"/><rect width="97" height="10" x="41" y="39" fill="#F1EAD9" rx="5"/><circle cx="164" cy="44" r="9" fill="#F1EAD9"/></g><g><text x="0" y="75" fill="#0D0D0F" font-family="Inter, -apple-system, BlinkMacSystemFont, 'Segoe UI', sans-serif" font-size="76" font-weight="760" transform="translate(498 111)">Open Island</text><text x="3" y="127" fill="#0D0D0F" fill-opacity=".56" font-family="'SF Mono', 'JetBrains Mono', ui-monospace, monospace" font-size="25" font-weight="500" transform="translate(498 111)">agents in your menu bar</text></g></g></svg>